<svg width="177" height="165" viewBox="0 0 177 165" fill="none" xmlns="http://www.w3.org/2000/svg">
<path d="M61.867 118.594H19.3594C14.7961 118.594 11.0625 115.113 11.0625 110.859V20.625C11.0625 16.3711 14.7961 12.8906 19.3594 12.8906H118.922C123.485 12.8906 127.219 16.3711 127.219 20.625V54.682C127.219 56.1 128.463 57.2602 129.984 57.2602C131.505 57.2602 132.75 56.1 132.75 54.682V20.625C132.75 13.5094 126.555 7.73438 118.922 7.73438H19.3594C11.7263 7.73438 5.53125 13.5094 5.53125 20.625V110.859C5.53125 117.975 11.7263 123.75 19.3594 123.75H61.867C63.3881 123.75 64.6327 122.59 64.6327 121.172C64.6327 119.754 63.3881 118.594 61.867 118.594Z" fill="white"/>
<path d="M121.688 64.4531C94.2248 64.4531 71.9062 85.2586 71.9062 110.859C71.9062 136.46 94.2248 157.266 121.688 157.266C149.15 157.266 171.469 136.46 171.469 110.859C171.469 85.2586 149.15 64.4531 121.688 64.4531ZM121.688 152.109C97.2947 152.109 77.4375 133.598 77.4375 110.859C77.4375 88.1203 97.2947 69.6094 121.688 69.6094C146.08 69.6094 165.938 88.1203 165.938 110.859C165.938 133.598 146.08 152.109 121.688 152.109Z" fill="white"/>
<path d="M154.875 113.438C156.396 113.438 157.641 112.277 157.641 110.859C157.641 109.441 156.396 108.281 154.875 108.281H149.344V97.9688H154.875C156.396 97.9688 157.641 96.8086 157.641 95.3906C157.641 93.9727 156.396 92.8125 154.875 92.8125H149.344V87.6562C149.344 86.2383 148.099 85.0781 146.578 85.0781H141.047V79.9219C141.047 78.5039 139.802 77.3438 138.281 77.3438C136.76 77.3438 135.516 78.5039 135.516 79.9219V85.0781H124.453V79.9219C124.453 78.5039 123.209 77.3438 121.688 77.3438C120.166 77.3438 118.922 78.5039 118.922 79.9219V85.0781H107.859V79.9219C107.859 78.5039 106.615 77.3438 105.094 77.3438C103.573 77.3438 102.328 78.5039 102.328 79.9219V85.0781H96.7969C95.2758 85.0781 94.0312 86.2383 94.0312 87.6562V92.8125H88.5C86.9789 92.8125 85.7344 93.9727 85.7344 95.3906C85.7344 96.8086 86.9789 97.9688 88.5 97.9688H94.0312V108.281H88.5C86.9789 108.281 85.7344 109.441 85.7344 110.859C85.7344 112.277 86.9789 113.438 88.5 113.438H94.0312V123.75H88.5C86.9789 123.75 85.7344 124.91 85.7344 126.328C85.7344 127.746 86.9789 128.906 88.5 128.906H94.0312V134.062C94.0312 135.48 95.2758 136.641 96.7969 136.641H102.328V141.797C102.328 143.215 103.573 144.375 105.094 144.375C106.615 144.375 107.859 143.215 107.859 141.797V136.641H118.922V141.797C118.922 143.215 120.166 144.375 121.688 144.375C123.209 144.375 124.453 143.215 124.453 141.797V136.641H135.516V141.797C135.516 143.215 136.76 144.375 138.281 144.375C139.802 144.375 141.047 143.215 141.047 141.797V136.641H146.578C148.099 136.641 149.344 135.48 149.344 134.062V128.906H154.875C156.396 128.906 157.641 127.746 157.641 126.328C157.641 124.91 156.396 123.75 154.875 123.75H149.344V113.438H154.875ZM143.812 131.484H99.5625V90.2344H143.812V131.484Z" fill="white"/>
<path d="M106.891 123.595C108.329 124.085 109.906 123.415 110.459 122.074L111.869 118.594H120.47L121.881 122.074C122.296 123.105 123.346 123.75 124.48 123.75C124.812 123.75 125.144 123.698 125.448 123.595C126.886 123.105 127.606 121.61 127.08 120.27L118.783 99.6445C118.368 98.6391 117.345 97.9688 116.183 97.9688C115.022 97.9688 113.999 98.6391 113.584 99.6445L105.287 120.27C104.761 121.61 105.481 123.08 106.919 123.595H106.891ZM116.156 107.895L118.396 113.438H113.943L116.183 107.895H116.156Z" fill="white"/>
<path d="M132.75 123.75C134.271 123.75 135.516 122.59 135.516 121.172V100.547C135.516 99.1289 134.271 97.9688 132.75 97.9688C131.229 97.9688 129.984 99.1289 129.984 100.547V121.172C129.984 122.59 131.229 123.75 132.75 123.75Z" fill="white"/>
<path d="M77.4372 67.0312C77.4372 66.3093 77.2989 65.6132 77.0777 64.9171C79.788 61.153 81.6409 55.5843 83.5492 49.6804C84.9044 45.478 86.3148 41.1726 87.9742 38.0272C88.9698 38.4397 90.1038 38.6718 91.2653 38.6718C93.3119 38.6718 95.1648 37.9499 96.603 36.7897C98.5666 39.9866 100.171 44.9108 101.747 49.7319C102.521 52.1038 103.296 54.4757 104.098 56.6929C104.485 57.7499 105.564 58.4202 106.698 58.4202C107.002 58.4202 107.306 58.3687 107.61 58.2655C109.048 57.8015 109.823 56.3319 109.325 54.9913C108.523 52.8515 107.776 50.5312 107.029 48.2366C104.872 41.6108 102.826 35.3202 99.4792 31.6335C99.4792 31.4015 99.5622 31.1437 99.5622 30.9116C99.5622 26.6577 95.8286 23.1772 91.2653 23.1772C86.702 23.1772 82.9684 26.6577 82.9684 30.9116C82.9684 32.1233 83.3003 33.2577 83.8258 34.289C81.558 38.0272 79.8709 43.1835 78.2669 48.1851C76.8011 52.671 75.3077 57.2601 73.51 60.4569C72.2378 59.7093 70.7444 59.271 69.1403 59.271C67.5363 59.271 66.0428 59.7093 64.7983 60.4569C63.0006 57.2601 61.5072 52.671 60.0414 48.1851C57.8842 41.5593 55.81 35.3202 52.4912 31.6335C52.4912 31.4015 52.5742 31.1437 52.5742 30.9116C52.5742 26.6577 48.8406 23.1772 44.2773 23.1772C39.7141 23.1772 35.9805 26.6577 35.9805 30.9116C35.9805 32.1233 36.3123 33.2577 36.8378 34.2632C34.57 38.0015 32.883 43.1577 31.2513 48.1851C28.9005 55.4296 25.9689 64.4272 22.1523 64.4272C20.6313 64.4272 19.3867 65.5874 19.3867 67.0054C19.3867 68.4233 20.6313 69.5835 22.1523 69.5835C30.0897 69.5835 33.3808 59.4772 36.5613 49.6804C37.9441 45.478 39.3545 41.1726 41.0139 38.0015C42.0095 38.414 43.1434 38.646 44.305 38.646C46.3516 38.646 48.2045 37.9241 49.6427 36.764C51.6063 39.9351 53.2103 44.8593 54.7867 49.6804C56.695 55.5585 58.548 61.1272 61.2583 64.8913C61.0647 65.5616 60.8988 66.2577 60.8988 67.0054C60.8988 71.2593 64.6323 74.7397 69.1956 74.7397C73.7589 74.7397 77.4925 71.2593 77.4925 67.0054L77.4372 67.0312ZM91.2653 28.3593C92.7864 28.3593 94.0309 29.5194 94.0309 30.9374C94.0309 32.3554 92.7864 33.5155 91.2653 33.5155C89.7442 33.5155 88.4997 32.3554 88.4997 30.9374C88.4997 29.5194 89.7442 28.3593 91.2653 28.3593ZM44.2497 33.5155C42.7286 33.5155 41.4841 32.3554 41.4841 30.9374C41.4841 29.5194 42.7286 28.3593 44.2497 28.3593C45.7708 28.3593 47.0153 29.5194 47.0153 30.9374C47.0153 32.3554 45.7708 33.5155 44.2497 33.5155ZM69.1403 69.6093C67.6192 69.6093 66.3747 68.4491 66.3747 67.0312C66.3747 65.6132 67.6192 64.453 69.1403 64.453C70.6614 64.453 71.9059 65.6132 71.9059 67.0312C71.9059 68.4491 70.6614 69.6093 69.1403 69.6093Z" fill="white"/>
<path d="M55.3125 77.3438H22.125C20.6039 77.3438 19.3594 78.5039 19.3594 79.9219C19.3594 81.3398 20.6039 82.5 22.125 82.5H55.3125C56.8336 82.5 58.0781 81.3398 58.0781 79.9219C58.0781 78.5039 56.8336 77.3438 55.3125 77.3438Z" fill="white"/>
<path d="M55.3125 90.2344H22.125C20.6039 90.2344 19.3594 91.3945 19.3594 92.8125C19.3594 94.2305 20.6039 95.3906 22.125 95.3906H55.3125C56.8336 95.3906 58.0781 94.2305 58.0781 92.8125C58.0781 91.3945 56.8336 90.2344 55.3125 90.2344Z" fill="white"/>
<path d="M55.3125 103.125H22.125C20.6039 103.125 19.3594 104.285 19.3594 105.703C19.3594 107.121 20.6039 108.281 22.125 108.281H55.3125C56.8336 108.281 58.0781 107.121 58.0781 105.703C58.0781 104.285 56.8336 103.125 55.3125 103.125Z" fill="white"/>
</svg>
