<svg width="147" height="142" viewBox="0 0 147 142" fill="none" xmlns="http://www.w3.org/2000/svg">
<path d="M107.106 124.537H16.7801C13.956 124.537 11.457 122.899 10.4131 120.363C9.35604 117.794 9.99148 115.018 12.0718 113.12L19.7995 106.075V60.3394C19.7995 37.8841 38.3409 19.2849 61.1312 18.8776C70.3599 18.7287 79.1469 21.3642 86.571 26.5411C87.4158 27.1308 87.606 28.2701 86.9964 29.0869C86.386 29.9037 85.2072 30.0874 84.361 29.4978C77.6055 24.7858 69.6043 22.3519 61.2005 22.5235C40.4529 22.8938 23.5738 39.8581 23.5738 60.3394V106.861C23.5738 107.363 23.3601 107.843 22.9819 108.187L14.6629 115.771C13.7171 116.634 13.4392 117.847 13.9206 119.016C14.4042 120.19 15.4731 120.891 16.7801 120.891H107.106C108.413 120.891 109.482 120.19 109.966 119.016C110.447 117.847 110.169 116.634 109.223 115.77L100.905 108.187C100.526 107.843 100.313 107.363 100.313 106.861V86.4719C100.313 85.465 101.157 84.649 102.2 84.649C103.242 84.649 104.087 85.465 104.087 86.4719V106.075L111.814 113.119C113.895 115.018 114.53 117.794 113.473 120.363C112.429 122.899 109.93 124.537 107.106 124.537Z" fill="white"/>
<path d="M102.201 108.685H82.7563C81.7139 108.685 80.8691 107.868 80.8691 106.862C80.8691 105.855 81.7139 105.039 82.7563 105.039H102.201C103.243 105.039 104.088 105.855 104.088 106.862C104.088 107.868 103.243 108.685 102.201 108.685Z" fill="white"/>
<path d="M71.1371 108.685H61.9438C60.9014 108.685 60.0566 107.868 60.0566 106.862C60.0566 105.855 60.9014 105.039 61.9438 105.039H71.1371C72.1794 105.039 73.0242 105.855 73.0242 106.862C73.0242 107.868 72.1794 108.685 71.1371 108.685Z" fill="white"/>
<path d="M33.6846 52.1316C33.476 52.1316 33.2644 52.0981 33.0566 52.0269C32.0739 51.6922 31.5579 50.6504 31.9051 49.7012C35.33 40.325 43.1079 32.9975 52.711 30.1C53.7062 29.8024 54.764 30.3357 55.0751 31.2971C55.3855 32.2577 54.8311 33.2802 53.8359 33.5808C45.3636 36.1372 38.4954 42.6165 35.4642 50.9146C35.1907 51.663 34.4623 52.1316 33.6846 52.1316Z" fill="white"/>
<path d="M31.9106 65.0037C30.8682 65.0037 30.0234 64.1877 30.0234 63.1807V60.3438C30.0234 60.0945 30.0264 59.8467 30.0323 59.5989C30.0537 58.5927 30.911 57.7496 31.9585 57.8151C33.0009 57.8365 33.8272 58.6696 33.8051 59.6758L33.7978 63.1807C33.7978 64.1877 32.953 65.0037 31.9106 65.0037Z" fill="white"/>
<path d="M62.2983 138.45H61.5913C53.439 138.45 46.8066 132.043 46.8066 124.168V122.721C46.8066 121.714 47.6514 120.898 48.6938 120.898H75.1958C76.2382 120.898 77.083 121.714 77.083 122.721V124.168C77.083 132.043 70.4507 138.45 62.2983 138.45ZM50.5876 124.544C50.794 130.235 55.6505 134.804 61.5913 134.804H62.2983C68.2391 134.804 73.0956 130.235 73.302 124.544H50.5876Z" fill="white"/>
<path d="M106.95 88.6124C87.0438 88.6124 70.8496 72.969 70.8496 53.7403C70.8496 34.5115 87.0438 18.8682 106.95 18.8682C126.855 18.8682 143.049 34.5115 143.049 53.7403C143.049 72.969 126.855 88.6124 106.95 88.6124ZM106.95 22.5141C89.1248 22.5141 74.6239 36.5218 74.6239 53.7403C74.6239 70.9588 89.1248 84.9664 106.95 84.9664C124.774 84.9664 139.275 70.9588 139.275 53.7403C139.275 36.5218 124.774 22.5141 106.95 22.5141Z" fill="white"/>
<path d="M37.4249 15.7512C37.332 15.7512 37.2384 15.7448 37.144 15.7313C36.1134 15.5824 35.4021 14.6553 35.5561 13.6591L36.8771 5.10394C37.0305 4.10771 37.9903 3.42125 39.0223 3.57008C40.0529 3.71891 40.7642 4.64606 40.6102 5.64228L39.2892 14.1974C39.1491 15.1018 38.3441 15.7512 37.4249 15.7512Z" fill="white"/>
<path d="M20.3376 21.2019C19.8548 21.2019 19.3719 21.0239 19.0033 20.6678L12.674 14.5538C11.9368 13.8417 11.9368 12.6874 12.674 11.976C13.4111 11.2639 14.6068 11.2639 15.3425 11.976L21.6719 18.09C22.409 18.8014 22.409 19.9557 21.6719 20.6678C21.304 21.0239 20.8204 21.2019 20.3376 21.2019Z" fill="white"/>
<path d="M5.83647 38.9836C4.91722 38.9836 4.11222 38.3342 3.97216 37.4298C3.81809 36.4343 4.52873 35.5064 5.56003 35.3576L14.4164 34.0808C15.447 33.9256 16.4068 34.6192 16.5616 35.6147C16.7156 36.6109 16.0043 37.538 14.9737 37.6869L6.11733 38.9637C6.02297 38.9772 5.92935 38.9836 5.83647 38.9836Z" fill="white"/>
<path d="M119.343 67.535C118.86 67.535 118.377 67.357 118.009 67.001L105.615 55.0292C105.262 54.6874 105.062 54.2238 105.062 53.7403V32.967C105.062 31.9601 105.907 31.144 106.95 31.144C107.992 31.144 108.837 31.9601 108.837 32.967V52.9855L120.677 64.4232C121.414 65.1353 121.414 66.2889 120.677 67.001C120.309 67.357 119.826 67.535 119.343 67.535Z" fill="white"/>
</svg>
