<svg width="50" height="50" viewBox="0 0 50 50" fill="none" xmlns="http://www.w3.org/2000/svg">
<rect x="0.5" y="0.5" width="49" height="49" rx="24.5" fill="white"/>
<rect x="0.5" y="0.5" width="49" height="49" rx="24.5" stroke="white"/>
<path d="M31.1562 16.4043H18.9688C17.5449 16.4043 16.3906 17.5586 16.3906 18.9824V31.1699C16.3906 32.5938 17.5449 33.748 18.9688 33.748H31.1562C32.5801 33.748 33.7344 32.5938 33.7344 31.1699V18.9824C33.7344 17.5586 32.5801 16.4043 31.1562 16.4043ZM32.7969 31.1699C32.7969 32.076 32.0623 32.8105 31.1562 32.8105H18.9688C18.0627 32.8105 17.3281 32.076 17.3281 31.1699V18.9824C17.3281 18.0763 18.0627 17.3418 18.9688 17.3418H31.1562C32.0623 17.3418 32.7969 18.0763 32.7969 18.9824V31.1699Z" fill="#0B280D"/>
<path d="M25.0625 20.1543C22.3486 20.1543 20.1406 22.3622 20.1406 25.0762C20.1406 27.79 22.3486 29.998 25.0625 29.998C27.7764 29.998 29.9844 27.79 29.9844 25.0762C29.9844 22.3622 27.7765 20.1543 25.0625 20.1543ZM25.0625 29.0605C22.8655 29.0605 21.0781 27.2731 21.0781 25.0762C21.0781 22.8791 22.8655 21.0918 25.0625 21.0918C27.2595 21.0918 29.0469 22.8792 29.0469 25.0762C29.0469 27.2731 27.2595 29.0605 25.0625 29.0605Z" fill="#0B280D"/>
<path d="M30.2188 18.2793C29.3141 18.2793 28.5781 19.0153 28.5781 19.9199C28.5781 20.8246 29.3141 21.5605 30.2188 21.5605C31.1234 21.5605 31.8594 20.8246 31.8594 19.9199C31.8594 19.0153 31.1234 18.2793 30.2188 18.2793ZM30.2188 20.623C29.831 20.623 29.5156 20.3076 29.5156 19.9199C29.5156 19.5322 29.831 19.2168 30.2188 19.2168C30.6065 19.2168 30.9219 19.5322 30.9219 19.9199C30.9219 20.3076 30.6065 20.623 30.2188 20.623Z" fill="#0B280D"/>
</svg>
