<svg width="126" height="127" viewBox="0 0 126 127" fill="none" xmlns="http://www.w3.org/2000/svg">
<path d="M123.938 61.1831H77.2188V16.4956C77.2188 15.3744 76.3087 14.4644 75.1875 14.4644H54.875V2.27686C54.875 1.15561 53.965 0.245605 52.8438 0.245605H30.5C29.3787 0.245605 28.4688 1.15561 28.4688 2.27686V28.6831H8.15625C7.035 28.6831 6.125 29.5931 6.125 30.7144V61.1831H2.0625C0.94125 61.1831 0.03125 62.0931 0.03125 63.2144C0.03125 64.3356 0.94125 65.2456 2.0625 65.2456H50.8125V91.6519C50.8125 92.7731 51.7225 93.6831 52.8438 93.6831H73.1562V108.917C73.1562 110.039 74.0663 110.949 75.1875 110.949H95.5V124.152C95.5 125.273 96.41 126.183 97.5312 126.183H119.875C120.996 126.183 121.906 125.273 121.906 124.152V65.2456H123.938C125.059 65.2456 125.969 64.3356 125.969 63.2144C125.969 62.0931 125.059 61.1831 123.938 61.1831ZM73.1562 18.5269V61.1831H54.875V18.5269H73.1562ZM10.1875 32.7456H28.4688V61.1831H10.1875V32.7456ZM32.5312 30.7144V4.30811H50.8125V16.4956V61.1831H32.5312V30.7144ZM54.875 89.6206V65.2456H73.1562V89.6206H54.875ZM77.2188 106.886V91.6519V65.2456H95.5V106.886H77.2188ZM117.844 122.121H99.5625V108.917V65.2456H117.844V122.121Z" fill="white"/>
<path d="M119.875 0.245605H89.4062C86.0455 0.245605 83.3125 2.97865 83.3125 6.33936V28.6831C83.3125 31.6975 85.5123 34.2071 88.3906 34.6926V37.8237C88.3906 38.5621 88.7918 39.2415 89.4367 39.6001C89.7445 39.7707 90.0827 39.855 90.4219 39.855C90.7956 39.855 91.1694 39.7514 91.4984 39.5462L99.1288 34.7769H119.875C123.236 34.7769 125.969 32.0438 125.969 28.6831V6.33936C125.969 2.97865 123.236 0.245605 119.875 0.245605ZM121.906 28.6831C121.906 29.8033 120.995 30.7144 119.875 30.7144H98.5469C98.166 30.7144 97.7933 30.821 97.4703 31.0231L92.4531 34.1594V32.7456C92.4531 31.6244 91.5431 30.7144 90.4219 30.7144H89.4062C88.286 30.7144 87.375 29.8033 87.375 28.6831V6.33936C87.375 5.21912 88.286 4.30811 89.4062 4.30811H119.875C120.995 4.30811 121.906 5.21912 121.906 6.33936V28.6831Z" fill="white"/>
<path d="M117.843 8.37061H111.75C110.628 8.37061 109.718 9.28061 109.718 10.4019C109.718 11.5231 110.628 12.4331 111.75 12.4331H112.94L105.656 19.7172L100.998 15.0595C100.205 14.2663 98.9194 14.2663 98.1262 15.0595L90.0012 23.1845C89.2079 23.9777 89.2079 25.2635 90.0012 26.0567C90.3983 26.4538 90.9172 26.6519 91.4372 26.6519C91.9572 26.6519 92.4762 26.4538 92.8733 26.0567L99.5622 19.3678L104.22 24.0254C105.013 24.8187 106.299 24.8187 107.092 24.0254L115.812 15.3053V16.4956C115.812 17.6169 116.722 18.5269 117.843 18.5269C118.965 18.5269 119.875 17.6169 119.875 16.4956V10.4019C119.875 9.28061 118.965 8.37061 117.843 8.37061Z" fill="white"/>
<path d="M41.6719 91.7361V88.605C41.6719 87.8666 41.2707 87.1871 40.6258 86.8286C39.9778 86.4691 39.1907 86.4904 38.5651 86.8825L30.9337 91.6518H10.1875C6.8268 91.6518 4.09375 94.3849 4.09375 97.7456V120.089C4.09375 123.45 6.8268 126.183 10.1875 126.183H40.6562C44.017 126.183 46.75 123.45 46.75 120.089V97.7456C46.75 94.7312 44.5502 92.2216 41.6719 91.7361ZM42.6875 120.089C42.6875 121.21 41.7765 122.121 40.6562 122.121H10.1875C9.06727 122.121 8.15625 121.21 8.15625 120.089V97.7456C8.15625 96.6253 9.06727 95.7143 10.1875 95.7143H31.5156C31.8965 95.7143 32.2692 95.6077 32.5922 95.4056L37.6094 92.2693V93.6831C37.6094 94.8043 38.5194 95.7143 39.6406 95.7143H40.6562C41.7765 95.7143 42.6875 96.6253 42.6875 97.7456V120.089Z" fill="white"/>
<path d="M37.1889 100.372L30.5 107.061L25.8423 102.403C25.0491 101.61 23.7634 101.61 22.9702 102.403L14.25 111.123V109.933C14.25 108.812 13.34 107.902 12.2188 107.902C11.0975 107.902 10.1875 108.812 10.1875 109.933V116.027C10.1875 117.148 11.0975 118.058 12.2188 118.058H18.3125C19.4338 118.058 20.3438 117.148 20.3438 116.027C20.3438 114.906 19.4338 113.996 18.3125 113.996H17.1222L24.4062 106.712L29.0639 111.369C29.8571 112.162 31.1429 112.162 31.9361 111.369L40.0611 103.244C40.8543 102.451 40.8543 101.165 40.0611 100.372C39.2679 99.5788 37.9821 99.5788 37.1889 100.372Z" fill="white"/>
</svg>
