<svg width="122" height="123" viewBox="0 0 122 123" fill="none" xmlns="http://www.w3.org/2000/svg">
<path d="M119.906 48.9299H115.234L108.592 30.6486H119.906C120.308 30.6501 120.701 30.5309 121.034 30.3063C121.368 30.0818 121.626 29.7622 121.775 29.3892C121.931 29.0193 121.973 28.6116 121.897 28.2176C121.821 27.8235 121.63 27.4608 121.348 27.1752L94.9422 0.768919C94.5587 0.38836 94.0403 0.174812 93.5 0.174812C92.9597 0.174812 92.4413 0.38836 92.0578 0.768919L65.6516 27.1752C65.3697 27.4608 65.1788 27.8235 65.1029 28.2176C65.027 28.6116 65.0695 29.0193 65.225 29.3892C65.3744 29.7622 65.6325 30.0818 65.9657 30.3063C66.2989 30.5309 66.6919 30.6501 67.0938 30.6486H78.1641L69.8563 48.9299H54.825C58.247 44.4091 60.3397 39.0231 60.8676 33.3779C61.3956 27.7326 60.3379 22.052 57.8135 16.9751C55.2891 11.8982 51.3981 7.62644 46.5783 4.64027C41.7586 1.65409 36.2011 0.0720215 30.5313 0.0720215C24.8614 0.0720215 19.304 1.65409 14.4842 4.64027C9.66441 7.62644 5.77347 11.8982 3.24906 16.9751C0.724657 22.052 -0.333061 27.7326 0.194891 33.3779C0.722843 39.0231 2.81552 44.4091 6.23751 48.9299H2.09377C1.55504 48.9299 1.03839 49.1439 0.657454 49.5248C0.276521 49.9057 0.062515 50.4224 0.062515 50.9611V120.024C0.062515 120.562 0.276521 121.079 0.657454 121.46C1.03839 121.841 1.55504 122.055 2.09377 122.055H119.906C120.445 122.055 120.962 121.841 121.343 121.46C121.724 121.079 121.938 120.562 121.938 120.024V50.9611C121.938 50.4224 121.724 49.9057 121.343 49.5248C120.962 49.1439 120.445 48.9299 119.906 48.9299ZM83.1609 29.4502C83.2996 29.1421 83.3592 28.8043 83.3344 28.4673C83.3096 28.1304 83.2011 27.8049 83.0188 27.5205C82.8373 27.2324 82.5854 26.9955 82.2868 26.832C81.9883 26.6685 81.6529 26.5838 81.3125 26.5861H71.9891L93.5 5.07517L115.011 26.5861H105.688C105.36 26.5866 105.038 26.6664 104.748 26.8184C104.458 26.9705 104.209 27.1905 104.022 27.4595C103.834 27.7247 103.714 28.0316 103.672 28.3536C103.629 28.6757 103.666 29.0032 103.778 29.308L110.908 48.9299H74.3047L83.1609 29.4502ZM4.12501 30.6486C4.1191 25.9215 5.38224 21.2794 7.78259 17.207C10.1829 13.1346 13.6325 9.78127 17.7711 7.49699C21.9097 5.21271 26.5856 4.08127 31.3107 4.2208C36.0358 4.36033 40.6368 5.7657 44.6334 8.29021C48.63 10.8147 51.8756 14.3658 54.0315 18.5727C56.1873 22.7796 57.1744 27.4881 56.8895 32.2067C56.6047 36.9253 55.0584 41.4808 52.4121 45.3979C49.7658 49.3149 46.1166 52.4498 41.8453 54.4752C41.4997 54.6398 41.2076 54.8988 41.0027 55.2222C40.7979 55.5457 40.6886 55.9204 40.6875 56.3033V61.1174H36.625V36.7424H42.7188C43.2575 36.7424 43.7741 36.5284 44.1551 36.1474C44.536 35.7665 44.75 35.2498 44.75 34.7111V26.5861C44.75 26.0474 44.536 25.5307 44.1551 25.1498C43.7741 24.7689 43.2575 24.5549 42.7188 24.5549H34.5938C34.055 24.5549 33.5384 24.7689 33.1575 25.1498C32.7765 25.5307 32.5625 26.0474 32.5625 26.5861V32.6799H28.5V26.5861C28.5 26.0474 28.286 25.5307 27.9051 25.1498C27.5241 24.7689 27.0075 24.5549 26.4688 24.5549H18.3438C17.805 24.5549 17.2884 24.7689 16.9075 25.1498C16.5265 25.5307 16.3125 26.0474 16.3125 26.5861V34.7111C16.3125 35.2498 16.5265 35.7665 16.9075 36.1474C17.2884 36.5284 17.805 36.7424 18.3438 36.7424H24.4375V61.1174H20.375V56.3033C20.3739 55.9204 20.2647 55.5457 20.0598 55.2222C19.855 54.8988 19.5629 54.6398 19.2172 54.4752C14.7153 52.3252 10.911 48.949 8.24138 44.7343C5.57175 40.5197 4.14501 35.6376 4.12501 30.6486ZM40.6875 65.1799V69.2424C40.6827 70.857 40.0391 72.4042 38.8974 73.546C37.7556 74.6877 36.2084 75.3313 34.5938 75.3361H26.4688C24.8541 75.3313 23.3069 74.6877 22.1652 73.546C21.0234 72.4042 20.3798 70.857 20.375 69.2424V65.1799H40.6875ZM24.4375 32.6799H20.375V28.6174H24.4375V32.6799ZM28.5 61.1174V36.7424H32.5625V61.1174H28.5ZM26.4688 79.3986H34.5938C35.9275 79.3986 37.2482 79.1359 38.4804 78.6255C39.7126 78.1151 40.8322 77.367 41.7753 76.4239C42.7184 75.4808 43.4665 74.3612 43.9769 73.129C44.4873 71.8968 44.75 70.5761 44.75 69.2424V61.1174H97.7047C98.1495 64.1537 99.5618 66.9657 101.732 69.1356C103.902 71.3056 106.714 72.7178 109.75 73.1627V97.822C106.714 98.2669 103.902 99.6791 101.732 101.849C99.5618 104.019 98.1495 106.831 97.7047 109.867H24.2953C23.8505 106.831 22.4383 104.019 20.2683 101.849C18.0983 99.6791 15.2864 98.2669 12.25 97.822V73.1627C13.789 72.9295 15.2786 72.4421 16.6578 71.7205C17.2082 73.9081 18.4713 75.8503 20.2477 77.2405C22.0242 78.6308 24.213 79.3901 26.4688 79.3986ZM36.625 32.6799V28.6174H40.6875V32.6799H36.625ZM117.875 117.992H4.12501V52.9924H9.89376C11.8242 54.79 13.9822 56.3266 16.3125 57.5627V67.1502C14.5642 68.4943 12.424 69.2291 10.2188 69.2424C9.68004 69.2424 9.16339 69.4564 8.78245 69.8373C8.40152 70.2182 8.18751 70.7349 8.18751 71.2736V99.7111C8.18751 100.25 8.40152 100.766 8.78245 101.147C9.16339 101.528 9.68004 101.742 10.2188 101.742C11.5525 101.742 12.8732 102.005 14.1054 102.515C15.3376 103.026 16.4572 103.774 17.4003 104.717C18.3434 105.66 19.0915 106.78 19.6019 108.012C20.1123 109.244 20.375 110.565 20.375 111.899C20.375 112.437 20.589 112.954 20.97 113.335C21.3509 113.716 21.8675 113.93 22.4063 113.93H99.5938C100.132 113.93 100.649 113.716 101.03 113.335C101.411 112.954 101.625 112.437 101.625 111.899C101.625 109.205 102.695 106.622 104.6 104.717C106.504 102.812 109.088 101.742 111.781 101.742C112.32 101.742 112.837 101.528 113.218 101.147C113.599 100.766 113.813 100.25 113.813 99.7111V71.2736C113.813 70.7349 113.599 70.2182 113.218 69.8373C112.837 69.4564 112.32 69.2424 111.781 69.2424C109.088 69.2424 106.504 68.1723 104.6 66.2677C102.695 64.363 101.625 61.7797 101.625 59.0861C101.625 58.5474 101.411 58.0307 101.03 57.6498C100.649 57.2689 100.132 57.0549 99.5938 57.0549H45.6438C47.6323 55.9126 49.4856 54.5499 51.1688 52.9924H117.875V117.992Z" fill="white"/>
<path d="M61 65.1799C56.9826 65.1799 53.0554 66.3712 49.715 68.6032C46.3746 70.8352 43.7711 74.0075 42.2337 77.7192C40.6963 81.4308 40.294 85.515 41.0778 89.4552C41.8616 93.3954 43.7962 97.0148 46.6369 99.8555C49.4777 102.696 53.097 104.631 57.0372 105.415C60.9775 106.198 65.0616 105.796 68.7733 104.259C72.4849 102.721 75.6573 100.118 77.8892 96.7775C80.1212 93.4371 81.3125 89.5099 81.3125 85.4924C81.3039 80.1079 79.1611 74.9463 75.3536 71.1388C71.5462 67.3313 66.3846 65.1885 61 65.1799ZM61 101.742C57.7861 101.742 54.6443 100.789 51.972 99.0038C49.2997 97.2182 47.2169 94.6803 45.987 91.711C44.757 88.7417 44.4352 85.4744 45.0622 82.3222C45.6893 79.17 47.2369 76.2746 49.5095 74.0019C51.7821 71.7293 54.6776 70.1817 57.8298 69.5547C60.982 68.9277 64.2493 69.2495 67.2186 70.4794C70.1879 71.7093 72.7258 73.7921 74.5114 76.4644C76.297 79.1367 77.25 82.2785 77.25 85.4924C77.2441 89.8004 75.5302 93.9302 72.484 96.9764C69.4378 100.023 65.308 101.737 61 101.742Z" fill="white"/>
<path d="M67.0938 81.4299V79.3987C67.0938 78.86 66.8797 78.3433 66.4988 77.9624C66.1179 77.5814 65.6012 77.3674 65.0625 77.3674H56.9375C56.3988 77.3674 55.8821 77.5814 55.5012 77.9624C55.1203 78.3433 54.9062 78.86 54.9062 79.3987V81.4299C54.9062 81.9687 55.1203 82.4853 55.5012 82.8662C55.8821 83.2472 56.3988 83.4612 56.9375 83.4612H65.0625C66.6772 83.466 68.2243 84.1096 69.3661 85.2513C70.5079 86.3931 71.1514 87.9403 71.1562 89.5549V91.5862C71.1514 93.2009 70.5079 94.748 69.3661 95.8898C68.2243 97.0315 66.6772 97.6751 65.0625 97.6799H63.0312V99.7112H58.9688V97.6799H56.9375C55.3228 97.6751 53.7757 97.0315 52.6339 95.8898C51.4921 94.748 50.8486 93.2009 50.8438 91.5862H54.9062C54.9062 92.1249 55.1203 92.6416 55.5012 93.0225C55.8821 93.4034 56.3988 93.6174 56.9375 93.6174H65.0625C65.6012 93.6174 66.1179 93.4034 66.4988 93.0225C66.8797 92.6416 67.0938 92.1249 67.0938 91.5862V89.5549C67.0938 89.0162 66.8797 88.4996 66.4988 88.1186C66.1179 87.7377 65.6012 87.5237 65.0625 87.5237H56.9375C55.3228 87.5189 53.7757 86.8753 52.6339 85.7335C51.4921 84.5918 50.8486 83.0446 50.8438 81.4299V79.3987C50.8486 77.784 51.4921 76.2368 52.6339 75.0951C53.7757 73.9533 55.3228 73.3098 56.9375 73.3049H58.9688V71.2737H63.0312V73.3049H65.0625C66.6772 73.3098 68.2243 73.9533 69.3661 75.0951C70.5079 76.2368 71.1514 77.784 71.1562 79.3987V81.4299H67.0938Z" fill="white"/>
</svg>
