<svg width="124" height="125" viewBox="0 0 124 125" fill="none" xmlns="http://www.w3.org/2000/svg">
<path d="M37.909 9.89662C52.8155 2.38975 70.3443 2.38975 85.2509 9.89662C86.2643 10.4122 87.4995 9.99981 88.0096 8.97556C88.5197 7.9513 88.1117 6.70303 87.0982 6.18747C71.0341 -1.90559 52.1421 -1.90559 36.078 6.18747C35.4224 6.52098 34.9927 7.18264 34.9506 7.9232C34.9086 8.66377 35.2607 9.37073 35.8743 9.77778C36.4879 10.1848 37.2698 10.2301 37.9254 9.89662H37.909Z" fill="white"/>
<path d="M112.339 37.8726C112.622 37.8716 112.901 37.8123 113.16 37.6983C113.659 37.4781 114.051 37.0664 114.25 36.554C114.449 36.0417 114.438 35.4705 114.22 34.9663C109.991 25.1783 103.172 16.759 94.5144 10.6348C93.9136 10.2016 93.129 10.1277 92.4594 10.4412C91.7897 10.7547 91.3382 11.4074 91.2767 12.1507C91.2152 12.8939 91.5532 13.6133 92.1621 14.0349C100.201 19.7218 106.531 27.5395 110.457 36.6279C110.784 37.3842 111.523 37.873 112.339 37.8726Z" fill="white"/>
<path d="M9.99668 37.7005C10.4959 37.9208 11.0612 37.9316 11.5683 37.7304C12.0753 37.5293 12.4824 37.1327 12.7 36.628C16.626 27.5396 22.9565 19.7218 30.9951 14.0349C31.5957 13.6095 31.9261 12.8926 31.8619 12.1542C31.7976 11.4159 31.3485 10.7682 30.6837 10.4552C30.0188 10.1423 29.2393 10.2116 28.6387 10.637C19.9822 16.7617 13.1652 25.181 8.93752 34.9684C8.71939 35.4727 8.70844 36.0438 8.90708 36.5562C9.10572 37.0686 9.49768 37.4802 9.99668 37.7005Z" fill="white"/>
<path d="M77.8738 19.9702C78.8542 19.9727 79.6995 19.2743 79.8919 18.3027C80.0843 17.3312 79.5699 16.3577 78.6641 15.9789C67.7144 11.4481 55.4415 11.4481 44.4918 15.9789C43.4449 16.4188 42.9491 17.6332 43.3844 18.6912C43.8198 19.7493 45.0213 20.2504 46.0683 19.8104C56.0083 15.7008 67.1476 15.7008 77.0876 19.8104C77.3367 19.9154 77.6039 19.9697 77.8738 19.9702Z" fill="white"/>
<path d="M98.6423 40.3847C99.1303 41.4193 100.356 41.8581 101.379 41.3649C102.403 40.8717 102.837 39.6332 102.349 38.5986C98.8118 31.0909 93.3074 24.7057 86.4332 20.1358C85.4855 19.5057 84.2118 19.7713 83.5883 20.7291C82.9648 21.6869 83.2276 22.9742 84.1753 23.6044C90.4238 27.7573 95.4272 33.5607 98.6423 40.3847Z" fill="white"/>
<path d="M21.7768 41.3637C22.2684 41.6011 22.8331 41.6314 23.3467 41.4477C23.8604 41.264 24.2806 40.8816 24.515 40.3845C27.7303 33.5641 32.7321 27.7636 38.9779 23.6124C39.5909 23.2048 39.9423 22.4976 39.8995 21.7572C39.8567 21.0168 39.4264 20.3557 38.7705 20.0229C38.1147 19.6902 37.333 19.7363 36.72 20.1439C29.8458 24.7137 24.3414 31.099 20.8039 38.6067C20.322 39.6397 20.7569 40.872 21.7768 41.3637Z" fill="white"/>
<path d="M53.3329 26.0983C52.2372 26.3939 51.5861 27.5311 51.8786 28.6385C52.171 29.7458 53.2964 30.4038 54.392 30.1082C59.1007 28.8508 64.0518 28.8508 68.7604 30.1082C68.9334 30.1539 69.1113 30.1776 69.29 30.1788C70.323 30.1821 71.1975 29.4092 71.3319 28.3741C71.4662 27.339 70.8185 26.3642 69.8196 26.0983C64.4164 24.658 58.736 24.658 53.3329 26.0983Z" fill="white"/>
<path d="M76.2141 33.2265C80.6505 35.8887 84.3028 39.7001 86.7934 44.2668C87.1472 44.916 87.8169 45.3252 88.5501 45.3401C89.2834 45.355 89.9688 44.9735 90.3482 44.3392C90.7277 43.7048 90.7434 42.9142 90.3896 42.2649C87.5457 37.0498 83.3746 32.6975 78.3078 29.6584C77.6764 29.2648 76.884 29.2462 76.2352 29.6097C75.5864 29.9732 75.1821 30.6621 75.1778 31.4118C75.1734 32.1615 75.5696 32.8553 76.2141 33.2265Z" fill="white"/>
<path d="M33.5758 45.0839C34.0529 45.3497 34.615 45.4129 35.1382 45.2596C35.6614 45.1063 36.1029 44.749 36.3653 44.2666C38.8559 39.6999 42.5082 35.8885 46.9446 33.2263C47.8977 32.6322 48.2039 31.3758 47.6327 30.4024C47.0615 29.429 45.8238 29.0979 44.8509 29.6582C39.7841 32.6973 35.613 37.0496 32.7691 42.2647C32.506 42.7466 32.4432 43.3145 32.5945 43.8432C32.7458 44.372 33.0988 44.8183 33.5758 45.0839Z" fill="white"/>
<path d="M114.947 58.203H73.7079C73.3002 55.6676 72.1156 53.3255 70.3211 51.5066C69.4954 50.6664 68.5562 49.9485 67.5316 49.374C70.6256 46.0944 70.5442 40.9127 67.3486 37.7341C64.1531 34.5554 59.0253 34.5554 55.8298 37.7341C52.6342 40.9127 52.5528 46.0944 55.6468 49.374C54.6186 49.9476 53.6759 50.6656 52.8471 51.5066C51.0488 53.3241 49.8605 55.6664 49.4499 58.203H8.21053C3.67598 58.203 0 61.9181 0 66.5009V116.288C0 120.871 3.67598 124.586 8.21053 124.586H114.947C119.482 124.586 123.158 120.871 123.158 116.288V66.5009C123.158 61.9181 119.482 58.203 114.947 58.203ZM57.4737 43.6817C57.4737 41.3903 59.3117 39.5327 61.5789 39.5327C63.8462 39.5327 65.6842 41.3903 65.6842 43.6817C65.6842 45.9731 63.8462 47.8306 61.5789 47.8306C59.3117 47.8306 57.4737 45.9731 57.4737 43.6817ZM55.7495 54.4316C57.2911 52.8607 59.3897 51.9771 61.5789 51.9771C63.7682 51.9771 65.8668 52.8607 67.4084 54.4316C68.4273 55.4761 69.1484 56.779 69.4959 58.203H53.6619C54.0095 56.779 54.7306 55.4761 55.7495 54.4316ZM4.10526 116.288V66.5009C4.10526 64.2095 5.94325 62.3519 8.21053 62.3519H11.4044C10.6656 63.6077 10.2717 65.0399 10.2632 66.5009V116.288C10.2717 117.749 10.6656 119.181 11.4044 120.437H8.21053C5.94325 120.437 4.10526 118.58 4.10526 116.288ZM114.947 120.437H18.4737C16.2064 120.437 14.3684 118.58 14.3684 116.288V66.5009C14.3684 64.2095 16.2064 62.3519 18.4737 62.3519H114.947C117.215 62.3519 119.053 64.2095 119.053 66.5009V69.7515L113.439 75.0726C111.785 76.6425 110.845 78.8327 110.842 81.1259V101.663C110.846 103.956 111.785 106.146 113.437 107.718L119.053 113.037V116.288C119.053 118.58 117.215 120.437 114.947 120.437ZM119.053 107.351L116.245 104.692C115.418 103.906 114.949 102.81 114.947 101.663V81.1259C114.947 79.9791 115.417 78.8836 116.245 78.0992L119.053 75.4397V107.351Z" fill="white"/>
<path d="M96.473 66.5005H90.3151C89.1814 66.5005 88.2624 67.4293 88.2624 68.575C88.2624 69.7207 89.1814 70.6494 90.3151 70.6494H91.5179L77.7776 84.5359L64.8234 75.1842C64.3572 74.8484 63.7734 74.7246 63.2129 74.8428C62.6524 74.9609 62.1662 75.3103 61.8718 75.8066L50.6623 94.6842L40.1385 87.5937C39.6716 87.279 39.0976 87.1713 38.5501 87.2955C38.0025 87.4198 37.5292 87.7651 37.2402 88.2513L28.7361 102.576V68.575C28.7361 67.4293 27.8171 66.5005 26.6835 66.5005C25.5499 66.5005 24.6309 67.4293 24.6309 68.575V114.213C24.6309 115.359 25.5499 116.288 26.6835 116.288H96.473C97.6066 116.288 98.5256 115.359 98.5256 114.213C98.5256 113.068 97.6066 112.139 96.473 112.139H28.7361V110.639L39.652 92.253L50.1759 99.3435C50.6427 99.6581 51.2167 99.7659 51.7643 99.6417C52.3118 99.5174 52.7852 99.172 53.0742 98.6859L64.2466 79.8663L76.8067 88.9338C77.6232 89.5226 78.7413 89.4287 79.4505 88.7118L94.4203 73.5827V74.7984C94.4203 75.9441 95.3393 76.8728 96.473 76.8728C97.6066 76.8728 98.5256 75.9441 98.5256 74.7984V68.575C98.5256 67.4293 97.6066 66.5005 96.473 66.5005Z" fill="white"/>
</svg>
