<svg width="130" height="131" viewBox="0 0 130 131" fill="none" xmlns="http://www.w3.org/2000/svg">
<path d="M56.2323 7.22675C13.3748 7.04292 -8.42363 59.7465 21.9446 89.9816L54.078 122.115C54.3609 122.398 54.6967 122.623 55.0663 122.776C55.436 122.929 55.8322 123.008 56.2323 123.008C56.6324 123.008 57.0286 122.929 57.3982 122.776C57.7678 122.623 58.1036 122.398 58.3865 122.115L69.8024 110.699C70.3559 110.125 70.6617 109.355 70.6541 108.557C70.6465 107.759 70.3261 106.996 69.7617 106.432C69.1973 105.867 68.4341 105.547 67.636 105.539C66.8379 105.532 66.0687 105.838 65.4938 106.391L56.2323 115.653L26.2525 85.6729C-0.291625 59.2464 18.7578 13.1519 56.2328 13.3208C83.1465 12.5735 104.773 40.5756 97.2426 66.409C97.1401 66.7959 97.1148 67.1991 97.1681 67.5958C97.2215 67.9924 97.3525 68.3747 97.5536 68.7207C97.7547 69.0667 98.0219 69.3698 98.3401 69.6125C98.6583 69.8552 99.0212 70.0329 99.4081 70.1354C100.189 70.3424 101.021 70.2305 101.72 69.8244C102.066 69.6233 102.369 69.356 102.612 69.0378C102.854 68.7196 103.032 68.3567 103.135 67.9699C111.429 37.8086 87.5565 6.8195 56.2323 7.22675Z" fill="white"/>
<path d="M56.2324 34.3849C50.5778 34.3914 45.1567 36.6406 41.1583 40.6389C37.16 44.6373 34.9108 50.0584 34.9043 55.713C36.0763 84.0076 76.3928 83.9994 77.5605 55.7129C77.554 50.0583 75.3048 44.6372 71.3064 40.6389C67.308 36.6405 61.887 34.3914 56.2324 34.3849ZM56.2324 70.9474C52.1934 70.943 48.321 69.3365 45.465 66.4805C42.6089 63.6244 41.0025 59.7521 40.998 55.713C41.7128 35.55 70.755 35.5552 71.4668 55.7133C71.4623 59.7523 69.8558 63.6246 66.9998 66.4806C64.1438 69.3366 60.2714 70.943 56.2324 70.9474Z" fill="white"/>
<path d="M98.8887 123.008C105.082 123.001 111.019 120.538 115.399 116.159C119.778 111.779 122.241 105.842 122.248 99.6486C120.965 68.6591 76.8072 68.6682 75.5293 99.6488C75.5362 105.842 77.9995 111.779 82.3788 116.159C86.758 120.538 92.6955 123.001 98.8887 123.008ZM98.8887 82.383C103.466 82.3881 107.855 84.2088 111.092 87.4456C114.328 90.6825 116.149 95.0711 116.154 99.6486C115.287 122.522 82.4872 122.516 81.623 99.6484C81.6282 95.0709 83.4489 90.6823 86.6858 87.4456C89.9226 84.2088 94.3111 82.3881 98.8887 82.383Z" fill="white"/>
<path d="M94.3651 106.543C94.9386 107.11 95.7127 107.428 96.5193 107.428C97.3259 107.428 98.1 107.11 98.6736 106.543L108.152 97.0629C108.709 96.4886 109.018 95.7183 109.012 94.9184C109.006 94.1184 108.685 93.353 108.119 92.7874C107.554 92.2217 106.788 91.9012 105.988 91.8951C105.188 91.889 104.418 92.1977 103.844 92.7547L96.5193 100.079L93.9335 97.4945C93.3592 96.9376 92.5889 96.6289 91.789 96.6351C90.989 96.6412 90.2236 96.9618 89.658 97.5274C89.0923 98.0931 88.7718 98.8586 88.7657 99.6585C88.7596 100.458 89.0683 101.229 89.6253 101.803L94.3651 106.543Z" fill="white"/>
</svg>
