<svg width="130" height="131" viewBox="0 0 130 131" fill="none" xmlns="http://www.w3.org/2000/svg">
<path d="M6.09391 126.055H42.6564C43.1951 126.055 43.7118 125.841 44.0927 125.46C44.4737 125.079 44.6877 124.562 44.6877 124.024V117.93H119.844C120.383 117.93 120.899 117.716 121.28 117.335C121.661 116.954 121.875 116.437 121.875 115.899V20.4299H123.906C124.274 20.429 124.634 20.3283 124.949 20.1387C125.264 19.9491 125.521 19.6777 125.694 19.3534C125.857 19.0357 125.933 18.6807 125.916 18.3241C125.898 17.9675 125.786 17.6219 125.592 17.3221L117.467 5.13462C117.282 4.85812 117.031 4.63156 116.737 4.47491C116.443 4.31826 116.115 4.23633 115.781 4.23633C115.448 4.23633 115.12 4.31826 114.826 4.47491C114.532 4.63156 114.281 4.85812 114.095 5.13462L105.97 17.3221C105.777 17.6219 105.665 17.9675 105.647 18.3241C105.629 18.6807 105.706 19.0357 105.869 19.3534C106.042 19.6777 106.299 19.9491 106.614 20.1387C106.929 20.3283 107.289 20.429 107.656 20.4299H109.688V105.742H44.2814C43.9961 104.345 43.5602 102.983 42.9814 101.68H46.7189V89.4924H50.7814C51.3201 89.4924 51.8368 89.2784 52.2177 88.8975C52.5987 88.5166 52.8127 87.9999 52.8127 87.4612V34.6487C52.8127 34.11 52.5987 33.5933 52.2177 33.2124C51.8368 32.8314 51.3201 32.6174 50.7814 32.6174H46.7189V20.4299H42.6564V32.6174H38.5939C38.0552 32.6174 37.5385 32.8314 37.1576 33.2124C36.7767 33.5933 36.5627 34.11 36.5627 34.6487V38.7112H6.09391C5.55519 38.7112 5.03853 38.9252 4.6576 39.3061C4.27667 39.6871 4.06266 40.2037 4.06266 40.7424V61.0549C4.06266 61.5937 4.27667 62.1103 4.6576 62.4912C5.03853 62.8722 5.55519 63.0862 6.09391 63.0862H17.672L23.258 66.8034C23.5896 67.0218 23.978 67.1382 24.3752 67.1382C24.7723 67.1382 25.1607 67.0218 25.4923 66.8034L31.0783 63.0862H36.5627V87.4612C36.5627 87.9999 36.7767 88.5166 37.1576 88.8975C37.5385 89.2784 38.0552 89.4924 38.5939 89.4924H42.6564V101.01C40.463 96.3979 36.6223 92.7746 31.8908 90.8534C33.8873 89.2894 35.3461 87.1417 36.0641 84.7093C36.782 82.277 36.7233 79.6813 35.8961 77.2839C35.0689 74.8865 33.5145 72.8068 31.4493 71.3348C29.3842 69.8627 26.9112 69.0716 24.3752 69.0716C21.8391 69.0716 19.3661 69.8627 17.301 71.3348C15.2359 72.8068 13.6814 74.8865 12.8542 77.2839C12.027 79.6813 11.9683 82.277 12.6862 84.7093C13.4042 87.1417 14.8631 89.2894 16.8595 90.8534C13.0704 92.3624 9.8233 94.9772 7.54089 98.3573C5.25849 101.737 4.04649 105.726 4.06266 109.805V124.024C4.06266 124.562 4.27667 125.079 4.6576 125.46C5.03853 125.841 5.55519 126.055 6.09391 126.055ZM44.6877 109.805H111.719C112.258 109.805 112.774 109.591 113.155 109.21C113.536 108.829 113.75 108.312 113.75 107.774V18.3987C113.75 17.86 113.536 17.3433 113.155 16.9624C112.774 16.5814 112.258 16.3674 111.719 16.3674H111.455L115.781 9.86743L120.108 16.3674H119.844C119.305 16.3674 118.789 16.5814 118.408 16.9624C118.027 17.3433 117.813 17.86 117.813 18.3987V113.867H44.6877V109.805ZM30.4689 59.0237C30.0707 59.0268 29.6822 59.1469 29.3517 59.369L24.3752 62.6799L19.3986 59.369C19.0681 59.1469 18.6796 59.0268 18.2814 59.0237H8.12516V42.7737H40.6252V59.0237H30.4689ZM40.6252 85.4299V63.0862H42.6564C43.1951 63.0862 43.7118 62.8722 44.0927 62.4912C44.4737 62.1103 44.6877 61.5937 44.6877 61.0549V40.7424C44.6877 40.2037 44.4737 39.6871 44.0927 39.3061C43.7118 38.9252 43.1951 38.7112 42.6564 38.7112H40.6252V36.6799H48.7502V85.4299H40.6252ZM31.9111 121.992H16.8392L14.6252 109.805H34.1252L31.9111 121.992ZM16.2502 81.3674C16.2502 79.7605 16.7267 78.1896 17.6195 76.8534C18.5123 75.5173 19.7812 74.4759 21.2659 73.8609C22.7505 73.2459 24.3842 73.085 25.9603 73.3986C27.5364 73.7121 28.9841 74.4859 30.1204 75.6222C31.2567 76.7585 32.0305 78.2062 32.344 79.7823C32.6575 81.3584 32.4966 82.9921 31.8817 84.4767C31.2667 85.9614 30.2253 87.2303 28.8892 88.1231C27.553 89.0159 25.9821 89.4924 24.3752 89.4924C22.2203 89.4924 20.1537 88.6364 18.6299 87.1127C17.1062 85.5889 16.2502 83.5223 16.2502 81.3674ZM8.12516 109.805C8.12516 105.495 9.83721 101.362 12.8847 98.3145C15.9321 95.267 20.0654 93.5549 24.3752 93.5549C28.6849 93.5549 32.8182 95.267 35.8656 98.3145C38.9131 101.362 40.6252 105.495 40.6252 109.805V121.992H36.0548L38.5939 108.139C38.6489 107.847 38.6393 107.547 38.5656 107.259C38.4919 106.971 38.3559 106.703 38.1673 106.474C37.972 106.239 37.7263 106.051 37.4485 105.925C37.1707 105.798 36.8679 105.736 36.5627 105.742H12.1877C11.8892 105.742 11.5944 105.807 11.3241 105.934C11.0537 106.06 10.8146 106.244 10.6236 106.474C10.435 106.703 10.2991 106.971 10.2254 107.259C10.1517 107.547 10.142 107.847 10.197 108.139L12.6955 121.992H8.12516V109.805Z" fill="white"/>
<path d="M67.0312 12.3049V24.4924H62.9688C62.43 24.4924 61.9134 24.7064 61.5324 25.0874C61.1515 25.4683 60.9375 25.985 60.9375 26.5237V87.4612C60.9375 87.9999 61.1515 88.5166 61.5324 88.8975C61.9134 89.2784 62.43 89.4924 62.9688 89.4924H67.0312V101.68H71.0938V89.4924H75.1562C75.695 89.4924 76.2116 89.2784 76.5926 88.8975C76.9735 88.5166 77.1875 87.9999 77.1875 87.4612V26.5237C77.1875 25.985 76.9735 25.4683 76.5926 25.0874C76.2116 24.7064 75.695 24.4924 75.1562 24.4924H71.0938V12.3049H67.0312ZM73.125 28.5549V85.4299H65V28.5549H73.125Z" fill="white"/>
<path d="M91.4062 4.17993V16.3674H87.3438C86.805 16.3674 86.2884 16.5814 85.9074 16.9624C85.5265 17.3433 85.3125 17.86 85.3125 18.3987V87.4612C85.3125 87.9999 85.5265 88.5166 85.9074 88.8975C86.2884 89.2784 86.805 89.4924 87.3438 89.4924H91.4062V101.68H95.4688V89.4924H99.5312C100.07 89.4924 100.587 89.2784 100.968 88.8975C101.348 88.5166 101.562 87.9999 101.562 87.4612V18.3987C101.562 17.86 101.348 17.3433 100.968 16.9624C100.587 16.5814 100.07 16.3674 99.5312 16.3674H95.4688V4.17993H91.4062ZM97.5 20.4299V85.4299H89.375V20.4299H97.5Z" fill="white"/>
<path d="M14.2188 48.8674H18.2812V52.9299H14.2188V48.8674Z" fill="white"/>
<path d="M22.3438 48.8674H26.4062V52.9299H22.3438V48.8674Z" fill="white"/>
<path d="M30.4688 48.8674H34.5312V52.9299H30.4688V48.8674Z" fill="white"/>
</svg>
