<svg width="88" height="105" viewBox="0 0 88 105" fill="none" xmlns="http://www.w3.org/2000/svg">
<path d="M44.9757 22.6294H43.0192C41.8232 22.6294 40.8495 21.6557 40.8495 20.4597C40.8495 19.7603 40.2814 19.1922 39.582 19.1922C38.8826 19.1922 38.3145 19.7603 38.3145 20.4597C38.3145 22.9544 40.2723 24.9824 42.7293 25.1345V27.2288C42.7293 27.9282 43.2974 28.4963 43.9968 28.4963C44.6962 28.4963 45.2643 27.9282 45.2643 27.2288V25.1345C47.7213 24.9824 49.6791 22.9544 49.6791 20.4597C49.6791 17.8662 47.5692 15.7563 44.9757 15.7563H43.0192C41.8232 15.7563 40.8495 14.7826 40.8495 13.5866C40.8495 12.3906 41.8232 11.4169 43.0192 11.4169H44.9757C46.1717 11.4169 47.1454 12.3906 47.1454 13.5866C47.1454 14.286 47.7135 14.8541 48.4129 14.8541C49.1123 14.8541 49.6804 14.286 49.6804 13.5866C49.6804 11.0919 47.7226 9.06395 45.2656 8.91185V6.81755C45.2656 6.11815 44.6975 5.55005 43.9981 5.55005C43.2987 5.55005 42.7306 6.11815 42.7306 6.81755V8.91185C40.2736 9.06395 38.3158 11.0919 38.3158 13.5866C38.3158 16.1801 40.4257 18.29 43.0192 18.29H44.9757C46.1717 18.29 47.1454 19.2637 47.1454 20.4597C47.1454 21.657 46.1717 22.6294 44.9757 22.6294Z" fill="white"/>
<path d="M87.2332 88.2302C87.2332 82.7 83.7713 77.7392 78.7494 75.706C80.4654 73.639 81.4989 70.987 81.4989 68.0971C81.4989 61.5178 76.1468 56.167 69.5688 56.167C62.9908 56.167 57.6387 61.5191 57.6387 68.0971C57.6387 70.9909 58.6761 73.6468 60.396 75.7151C58.0989 76.6459 56.0774 78.1955 54.5941 80.204C54.1352 79.9518 53.6633 79.723 53.1732 79.5241C54.8892 77.4571 55.9227 74.8051 55.9227 71.9152C55.9227 65.3359 50.5706 59.9851 43.9926 59.9851C37.4146 59.9851 32.0625 65.3372 32.0625 71.9152C32.0625 74.8051 33.096 77.4571 34.812 79.5228C34.3245 79.7204 33.8552 79.9479 33.3989 80.1988C31.913 78.1955 29.8889 76.6472 27.5879 75.7164C29.3091 73.6481 30.3465 70.9922 30.3465 68.0971C30.3465 61.5178 24.9944 56.167 18.4164 56.167C11.8384 56.167 6.48627 61.5191 6.48627 68.0971C6.48627 70.987 7.51977 73.639 9.23577 75.7047C4.22167 77.7379 0.763672 82.7 0.763672 88.2289V95.778C0.763672 95.7793 0.764971 95.7819 0.764971 95.7832C0.767571 96.2018 0.99117 96.5827 1.34867 96.818C1.41497 96.8622 1.47347 96.9168 1.54757 96.948C1.55277 96.9506 1.55537 96.9545 1.56057 96.9571C4.01497 97.9308 6.50707 98.7082 8.97057 99.2685C12.1075 99.9601 15.2626 100.306 18.4229 100.306C21.0671 100.306 23.7087 100.048 26.3399 99.5649V99.5974C26.3399 99.6026 26.3425 99.6065 26.3425 99.6117C26.3438 99.7209 26.3776 99.8223 26.4062 99.925C26.4218 99.9809 26.4205 100.043 26.4439 100.097C26.4647 100.145 26.505 100.18 26.531 100.225C26.5869 100.32 26.6376 100.419 26.7156 100.496C26.7442 100.524 26.7858 100.539 26.8157 100.563C26.9119 100.643 27.0107 100.719 27.1277 100.767C27.1316 100.769 27.1342 100.773 27.1381 100.774C29.5184 101.723 31.9065 102.457 34.2998 103.002C34.4415 103.066 34.5975 103.097 34.76 103.105C37.8345 103.772 40.9142 104.117 43.9952 104.117C47.0918 104.117 50.1897 103.768 53.2811 103.094C53.4228 103.081 53.5593 103.059 53.6841 103.005C56.08 102.46 58.4733 101.724 60.8575 100.774C60.8614 100.773 60.864 100.769 60.8679 100.767C60.9836 100.719 61.0811 100.644 61.1773 100.566C61.2098 100.54 61.2527 100.524 61.2826 100.496C61.3515 100.427 61.3957 100.337 61.4477 100.254C61.4815 100.199 61.5296 100.155 61.5543 100.097C61.5764 100.046 61.5751 99.9861 61.5894 99.9328C61.6193 99.8275 61.6531 99.7235 61.6544 99.6117C61.6544 99.6065 61.657 99.6026 61.657 99.5974V99.5662C64.2843 100.05 66.9246 100.307 69.5675 100.307C72.7265 100.307 75.8881 99.9601 79.0289 99.2685C81.4833 98.7095 83.9754 97.9334 86.4298 96.9584C86.4337 96.9571 86.4363 96.9532 86.4402 96.9519C86.5702 96.8986 86.682 96.818 86.786 96.727C86.8055 96.7088 86.8341 96.701 86.8536 96.6815C87.0291 96.5086 87.1318 96.2772 87.1825 96.0263C87.1981 95.9496 87.228 95.8781 87.228 95.7988C87.228 95.7923 87.2319 95.7871 87.2319 95.7806V88.2302H87.2332ZM69.5701 58.7007C74.7506 58.7007 78.9665 62.9166 78.9665 68.0971C78.9665 73.2776 74.7506 77.4935 69.5701 77.4935C64.3896 77.4935 60.1737 73.2776 60.1737 68.0971C60.1737 62.9166 64.3896 58.7007 69.5701 58.7007ZM43.9939 62.5175C49.1744 62.5175 53.3903 66.7334 53.3903 71.9139C53.3903 77.0944 49.1744 81.3103 43.9939 81.3103C38.8134 81.3103 34.5975 77.0944 34.5975 71.9139C34.5975 66.7334 38.8134 62.5175 43.9939 62.5175ZM18.419 58.7007C23.5995 58.7007 27.8141 62.9166 27.8141 68.0971C27.8141 73.2776 23.5982 77.4935 18.419 77.4935C13.2398 77.4935 9.02257 73.2776 9.02257 68.0971C9.02257 62.9166 13.2385 58.7007 18.419 58.7007ZM10.5059 96.9857V88.5786C10.5059 87.8792 9.93777 87.3111 9.23837 87.3111C8.53897 87.3111 7.97087 87.8792 7.97087 88.5786V96.3773C6.41477 95.9652 4.85477 95.4738 3.29867 94.8875V88.2315C3.29867 83.3253 6.66177 78.995 11.3522 77.6898C13.3334 79.1536 15.7722 80.0298 18.4177 80.0298C21.071 80.0298 23.5163 79.1484 25.5001 77.6768C27.8076 78.3216 29.8616 79.7126 31.3059 81.6249C28.2613 84.1391 26.3399 87.9338 26.3399 92.0483V96.9857C21.0801 98.014 15.7618 98.0127 10.5059 96.9857ZM36.0821 100.799V92.3954C36.0821 91.696 35.514 91.1279 34.8146 91.1279C34.1152 91.1279 33.5471 91.696 33.5471 92.3954V100.211C31.9871 99.8054 30.4297 99.3049 28.8749 98.7173V92.047C28.8749 87.1408 32.238 82.8105 36.9284 81.5053C38.9096 82.9691 41.3484 83.8453 43.9939 83.8453C46.6394 83.8453 49.0769 82.9691 51.0581 81.5066C55.755 82.8118 59.1233 87.1408 59.1233 92.047V98.7173C57.5646 99.3062 56.0046 99.8067 54.4407 100.212V92.3941C54.4407 91.6947 53.8726 91.1266 53.1732 91.1266C52.4738 91.1266 51.9057 91.6947 51.9057 92.3941V100.797C46.6368 101.835 41.3497 101.835 36.0821 100.799ZM61.657 96.987V92.0483C61.657 87.9351 59.7356 84.143 56.6884 81.6288C58.1314 79.7113 60.1815 78.319 62.4851 77.6755C64.4689 79.1471 66.9155 80.0298 69.5701 80.0298C72.2156 80.0298 74.6531 79.1536 76.6343 77.6911C81.3312 78.9963 84.6995 83.3253 84.6995 88.2315V94.8862C83.1382 95.4751 81.5743 95.9678 80.0169 96.3799V88.5799C80.0169 87.8805 79.4488 87.3124 78.7494 87.3124C78.05 87.3124 77.4819 87.8805 77.4819 88.5799V96.9883C72.2273 98.014 66.9129 98.014 61.657 96.987Z" fill="white"/>
<path d="M17.5201 52.822C17.7502 53.0534 18.0674 53.1977 18.4197 53.1977C18.7811 53.1977 19.1022 53.043 19.3323 52.8012L23.27 48.8635C23.7653 48.3682 23.7653 47.5661 23.27 47.0721C22.7747 46.5768 21.9726 46.5768 21.4786 47.0721L19.6872 48.8635V35.2902C19.6872 32.8683 21.2251 30.8988 23.1153 30.8988H34.3616C36.7718 32.5771 39.6344 33.6353 42.7297 33.8667V52.3475L40.9292 50.5483C40.4339 50.053 39.6318 50.053 39.1378 50.5483C38.6425 51.0436 38.6425 51.8457 39.1378 52.3397L43.0976 56.2982C43.3446 56.5452 43.6683 56.67 43.9933 56.67C44.3183 56.67 44.642 56.5465 44.889 56.2982L48.8475 52.3397C49.3428 51.8444 49.3428 51.0423 48.8475 50.5483C48.3522 50.053 47.5501 50.053 47.0561 50.5483L45.2647 52.3397V33.8667C48.36 33.6353 51.2226 32.5771 53.6328 30.8988H64.8791C66.7693 30.8988 68.3072 32.8683 68.3072 35.2902V48.8726L66.5067 47.0721C66.0114 46.5768 65.2093 46.5768 64.7153 47.0721C64.2213 47.5674 64.22 48.3695 64.7153 48.8635L68.6738 52.822C68.6751 52.8233 68.6764 52.8233 68.6764 52.8246C68.9065 53.056 69.2237 53.199 69.5747 53.199C69.9374 53.199 70.2598 53.0417 70.4912 52.7973L74.4237 48.8648C74.919 48.3695 74.919 47.5674 74.4237 47.0734C73.9284 46.5794 73.1263 46.5781 72.6323 47.0734L70.8422 48.8635V35.2915C70.8422 31.4721 68.1681 28.3651 64.8791 28.3651H56.5006C59.2267 25.3621 60.905 21.3906 60.905 17.0239C60.9037 7.70163 53.3195 0.117432 43.9972 0.117432C34.6749 0.117432 27.0894 7.70163 27.0894 17.0239C27.0894 21.3906 28.7664 25.3621 31.4938 28.3651H23.1153C19.8276 28.3651 17.1522 31.4721 17.1522 35.2915V48.8726L15.3543 47.0747C14.859 46.5794 14.0569 46.5794 13.5629 47.0747C13.0676 47.57 13.0676 48.3721 13.5629 48.8661L17.5201 52.822ZM43.9972 2.65113C51.9233 2.65113 58.37 9.09913 58.37 17.0239C58.37 24.937 51.9415 31.3759 44.0323 31.3954C44.0193 31.3954 44.0089 31.3876 43.9959 31.3876C43.9829 31.3876 43.9725 31.3941 43.9595 31.3954C36.0503 31.3759 29.6218 24.937 29.6218 17.0239C29.6231 9.09913 36.0711 2.65113 43.9972 2.65113Z" fill="white"/>
</svg>
