<svg width="130" height="131" viewBox="0 0 130 131" fill="none" xmlns="http://www.w3.org/2000/svg">
<path d="M65 12.3049C35.8325 12.3049 12.1875 35.9499 12.1875 65.1174C12.1875 94.285 35.8325 117.93 65 117.93C67.2437 117.93 69.0625 119.749 69.0625 121.992C69.0625 124.236 67.2437 126.055 65 126.055C31.3452 126.055 4.0625 98.7722 4.0625 65.1174C4.0625 31.4627 31.3452 4.17993 65 4.17993C67.2437 4.17993 69.0625 5.99877 69.0625 8.24243C69.0625 10.4861 67.2437 12.3049 65 12.3049Z" fill="white"/>
<path d="M40.625 65.1174C40.625 51.6555 51.5381 40.7424 65 40.7424C67.2437 40.7424 69.0625 38.9237 69.0625 36.6799C69.0625 34.4362 67.2437 32.6174 65 32.6174C47.0507 32.6174 32.5 47.1681 32.5 65.1174C32.5 83.0668 47.0507 97.6174 65 97.6174C82.9493 97.6174 97.5 83.0668 97.5 65.1174C97.5 62.8737 95.6812 61.0549 93.4375 61.0549C91.1938 61.0549 89.375 62.8737 89.375 65.1174C89.375 78.5793 78.4619 89.4924 65 89.4924C51.5381 89.4924 40.625 78.5793 40.625 65.1174Z" fill="white"/>
<path d="M107.656 102.029L96.3101 90.6824C94.7237 89.0958 92.1514 89.0958 90.565 90.6824C88.9783 92.2688 88.9783 94.8412 90.565 96.4276L101.911 107.774L90.565 119.12C88.9783 120.706 88.9783 123.279 90.565 124.865C92.1514 126.452 94.7237 126.452 96.3101 124.865L107.656 113.519L119.002 124.865C120.589 126.452 123.161 126.452 124.748 124.865C126.334 123.279 126.334 120.706 124.748 119.12L113.401 107.774L124.748 96.4276C126.334 94.8412 126.334 92.2688 124.748 90.6824C123.161 89.0958 120.589 89.0958 119.002 90.6824L107.656 102.029Z" fill="white"/>
<path fill-rule="evenodd" clip-rule="evenodd" d="M85.3798 23.5009L86.0202 38.2332L64.1587 60.0949C62.5721 61.6813 62.5721 64.2535 64.1587 65.8401C65.7451 67.4265 68.3173 67.4265 69.9039 65.8401L91.7654 43.9784L106.498 44.619C107.635 44.6684 108.742 44.2382 109.547 43.433L124.628 28.3515C125.767 27.2124 126.126 25.5078 125.541 24.0063C124.957 22.5048 123.541 21.4904 121.932 21.4203L109.135 20.864L108.578 8.06681C108.508 6.45729 107.494 5.04118 105.993 4.45714C104.491 3.87309 102.786 4.23147 101.647 5.37065L86.5658 20.452C85.7606 21.2572 85.3302 22.3634 85.3798 23.5009ZM94.0534 35.9452L93.5747 24.9336L100.862 17.646L101.179 24.9372C101.271 27.0424 102.956 28.7279 105.061 28.8195L112.353 29.1366L105.065 36.4239L94.0534 35.9452Z" fill="white"/>
</svg>
