<svg width="481" height="131" viewBox="0 0 481 131" fill="none" xmlns="http://www.w3.org/2000/svg">
<path d="M0 3.72787H26.6653V79.0927C26.6653 83.8945 27.5087 88.1108 29.1956 91.7414C31.0122 95.2549 33.3478 98.2414 36.2025 100.701C39.0572 103.043 42.3011 104.859 45.9344 106.147C49.5676 107.318 53.3306 107.904 57.2233 107.904C60.9863 107.904 64.6844 107.318 68.3176 106.147C71.9509 104.976 75.1948 103.219 78.0495 100.877C80.9042 98.4171 83.1749 95.372 84.8618 91.7414C86.6784 88.1108 87.5867 83.8945 87.5867 79.0927V3.72787H114.252V76.4576C114.252 85.3585 112.63 93.2053 109.386 99.9981C106.142 106.674 101.795 112.295 96.3454 116.863C91.0253 121.313 84.9267 124.651 78.0495 126.877C71.3021 129.102 64.36 130.214 57.2233 130.214C50.0866 130.214 43.0797 129.102 36.2025 126.877C29.3253 124.651 23.2267 121.313 17.9066 116.863C12.5865 112.295 8.23964 106.674 4.86593 99.9981C1.62198 93.2053 0 85.3585 0 76.4576V3.72787Z" fill="url(#paint0_linear_1_1116)"/>
<path d="M136.348 36.2279C136.348 29.4351 137.775 23.7549 140.63 19.1873C143.614 14.6198 147.312 10.9306 151.724 8.11976C156.266 5.30895 161.197 3.31795 166.517 2.14678C171.966 0.858498 177.222 0.214355 182.282 0.214355C192.014 0.214355 200.448 2.08823 207.585 5.83598C214.852 9.46661 220.885 14.0927 225.686 19.7144L205.444 32.89C202.849 30.0792 199.54 27.6198 195.518 25.5117C191.625 23.4035 187.083 22.3495 181.893 22.3495C179.817 22.3495 177.676 22.5837 175.47 23.0522C173.264 23.4035 171.188 24.1063 169.242 25.1603C167.425 26.2144 165.933 27.5612 164.765 29.2008C163.597 30.8405 163.013 32.89 163.013 35.3495C163.013 37.6918 163.597 39.7999 164.765 41.6738C166.062 43.4306 167.879 45.0702 170.215 46.5927C172.55 47.9981 175.405 49.4035 178.779 50.809C182.152 52.0972 185.98 53.4441 190.262 54.8495C193.896 56.1378 197.853 57.6603 202.135 59.4171C206.547 61.1738 210.634 63.5162 214.397 66.4441C218.16 69.2549 221.275 72.827 223.74 77.1603C226.335 81.4936 227.633 86.881 227.633 93.3225C227.633 100.232 226.14 106.088 223.156 110.89C220.301 115.575 216.538 119.381 211.867 122.309C207.326 125.12 202.265 127.111 196.685 128.282C191.236 129.57 185.915 130.214 180.725 130.214C170.215 130.214 161.132 128.165 153.476 124.066C145.95 119.967 139.332 114.755 133.623 108.431L153.671 95.2549C156.655 98.5342 160.418 101.521 164.96 104.214C169.631 106.791 174.951 108.079 180.92 108.079C183.126 108.079 185.396 107.845 187.732 107.377C190.068 106.908 192.209 106.147 194.155 105.093C196.231 104.039 197.918 102.633 199.216 100.877C200.513 99.0026 201.162 96.7774 201.162 94.2008C201.162 91.6243 200.448 89.399 199.021 87.5252C197.723 85.5342 195.842 83.7774 193.377 82.2549C191.041 80.6153 188.251 79.1513 185.007 77.863C181.893 76.5747 178.454 75.2864 174.691 73.9981C170.539 72.4756 166.192 70.836 161.651 69.0792C157.109 67.3225 152.957 65.0387 149.194 62.2279C145.431 59.4171 142.317 55.9621 139.851 51.863C137.516 47.6468 136.348 42.4351 136.348 36.2279Z" fill="url(#paint1_linear_1_1116)"/>
<path d="M279.368 75.0522V55.2008H296.107C299.61 55.2008 302.595 54.7324 305.06 53.7954C307.655 52.8585 309.731 51.6288 311.289 50.1062C312.975 48.4666 314.208 46.7099 314.987 44.836C315.895 42.845 316.349 40.854 316.349 38.863C316.349 36.7549 315.895 34.7053 314.987 32.7144C314.078 30.7234 312.781 28.9666 311.094 27.4441C309.407 25.8044 307.266 24.5162 304.671 23.5792C302.206 22.6423 299.286 22.1738 295.912 22.1738C292.668 22.1738 289.619 22.6423 286.764 23.5792C283.91 24.5162 281.25 25.8044 278.784 27.4441C276.319 28.9666 274.048 30.7819 271.972 32.89C269.896 34.881 268.079 36.9891 266.522 39.2144L245.891 25.863C248.615 22.2324 251.665 18.836 255.038 15.6738C258.542 12.5117 262.37 9.81796 266.522 7.59273C270.804 5.25039 275.346 3.43508 280.147 2.14678C285.077 0.858498 290.268 0.214355 295.718 0.214355C300.908 0.214355 306.293 0.91706 311.873 2.32247C317.452 3.61075 322.513 5.71886 327.054 8.64678C331.596 11.5747 335.359 15.381 338.343 20.0657C341.328 24.6333 342.82 30.2549 342.82 36.9306C342.82 42.7864 341.392 47.9981 338.538 52.5657C335.813 57.0162 331.985 60.9396 327.054 64.336C333.283 67.7324 338.084 71.8315 341.457 76.6333C344.961 81.4351 346.713 86.9981 346.713 93.3225C346.713 99.881 345.155 105.503 342.041 110.187C338.927 114.872 334.905 118.737 329.974 121.782C325.173 124.71 319.853 126.818 314.014 128.106C308.174 129.512 302.465 130.214 296.885 130.214C291.176 130.214 285.726 129.57 280.536 128.282C275.475 126.994 270.739 125.237 266.327 123.012C261.916 120.669 257.828 117.917 254.065 114.755C250.432 111.593 247.253 108.196 244.528 104.566L265.16 91.2144C266.846 93.4396 268.793 95.6063 270.999 97.7144C273.334 99.7054 275.865 101.521 278.59 103.16C281.444 104.683 284.429 105.913 287.543 106.849C290.787 107.786 294.225 108.255 297.859 108.255C301.492 108.255 304.671 107.786 307.396 106.849C310.251 105.913 312.586 104.683 314.403 103.16C316.349 101.638 317.777 99.9396 318.685 98.0657C319.723 96.0747 320.242 94.0252 320.242 91.9171C320.242 89.9261 319.723 87.9351 318.685 85.9441C317.777 83.836 316.349 82.0207 314.403 80.4981C312.586 78.8585 310.251 77.5702 307.396 76.6333C304.541 75.5792 301.167 75.0522 297.275 75.0522H279.368Z" fill="url(#paint2_linear_1_1116)"/>
<path d="M363.828 65.0387C363.828 56.1378 365.321 47.7639 368.305 39.9171C371.419 32.0702 375.636 25.2189 380.957 19.363C386.277 13.39 392.44 8.70534 399.447 5.30895C406.584 1.91255 414.175 0.214355 422.22 0.214355C430.394 0.214355 438.05 1.91255 445.187 5.30895C452.323 8.70534 458.552 13.39 463.872 19.363C469.192 25.2189 473.344 32.0702 476.329 39.9171C479.443 47.7639 481 56.1378 481 65.0387C481 73.9396 479.443 82.372 476.329 90.336C473.344 98.2999 469.192 105.21 463.872 111.066C458.552 116.922 452.323 121.606 445.187 125.12C438.05 128.516 430.394 130.214 422.22 130.214C414.175 130.214 406.584 128.516 399.447 125.12C392.44 121.606 386.277 116.922 380.957 111.066C375.636 105.21 371.419 98.2999 368.305 90.336C365.321 82.372 363.828 73.9396 363.828 65.0387ZM391.078 65.0387C391.078 71.1288 391.856 76.809 393.413 82.0792C395.1 87.3495 397.371 91.9756 400.226 95.9576C403.08 99.8225 406.389 102.868 410.152 105.093C413.915 107.318 417.938 108.431 422.22 108.431C426.502 108.431 430.524 107.318 434.287 105.093C438.18 102.868 441.554 99.8225 444.408 95.9576C447.263 91.9756 449.534 87.3495 451.221 82.0792C452.907 76.809 453.751 71.1288 453.751 65.0387C453.751 59.0657 452.907 53.4441 451.221 48.1738C449.534 42.9035 447.263 38.336 444.408 34.4711C441.554 30.6062 438.18 27.5612 434.287 25.336C430.524 22.9936 426.502 21.8225 422.22 21.8225C417.938 21.8225 413.915 22.9936 410.152 25.336C406.389 27.5612 403.08 30.6062 400.226 34.4711C397.371 38.336 395.1 42.9035 393.413 48.1738C391.856 53.4441 391.078 59.0657 391.078 65.0387Z" fill="url(#paint3_linear_1_1116)"/>
<defs>
<linearGradient id="paint0_linear_1_1116" x1="0" y1="65.2144" x2="481" y2="65.2144" gradientUnits="userSpaceOnUse">
<stop stop-color="#0836D5"/>
<stop offset="1" stop-color="#C82D2D"/>
</linearGradient>
<linearGradient id="paint1_linear_1_1116" x1="0" y1="65.2144" x2="481" y2="65.2144" gradientUnits="userSpaceOnUse">
<stop stop-color="#0836D5"/>
<stop offset="1" stop-color="#C82D2D"/>
</linearGradient>
<linearGradient id="paint2_linear_1_1116" x1="0" y1="65.2144" x2="481" y2="65.2144" gradientUnits="userSpaceOnUse">
<stop stop-color="#0836D5"/>
<stop offset="1" stop-color="#C82D2D"/>
</linearGradient>
<linearGradient id="paint3_linear_1_1116" x1="0" y1="65.2144" x2="481" y2="65.2144" gradientUnits="userSpaceOnUse">
<stop stop-color="#0836D5"/>
<stop offset="1" stop-color="#C82D2D"/>
</linearGradient>
</defs>
</svg>
